<svg width="60" height="60" viewBox="0 0 60 60" fill="none" xmlns="http://www.w3.org/2000/svg">
<path d="M30 60C46.5685 60 60 46.5685 60 30C60 13.4315 46.5685 0 30 0C13.4315 0 0 13.4315 0 30C0 46.5685 13.4315 60 30 60Z" fill="#FFDD67"/>
<path d="M23.5 26.4C24.9 29.3 23.1 33 19.6 34.7C16.1 36.3 12.1 35.3 10.7 32.4C9.90001 30.5 22.7 24.5 23.5 26.4Z" fill="#664E27"/>
<path d="M36.5 26.4C35.1 29.3 36.9 33 40.4 34.7C43.9 36.3 47.9 35.3 49.3 32.4C50.1 30.5 37.3 24.5 36.5 26.4Z" fill="#664E27"/>
<path d="M20.7 17.8C18 21.1 11.5 24.1 7.20001 24.1C6.60001 24.1 6.50001 26.3 7.20001 26.3C12.1 26.3 19.2 23 22.4 19.2C22.9 18.7 21.1 17.4 20.7 17.8Z" fill="#917524"/>
<path d="M39.3 17.8C42 21.1 48.5 24.1 52.8 24.1C53.4 24.1 53.5 26.3 52.8 26.3C47.9 26.3 40.8 23 37.6 19.2C37.1 18.7 38.9 17.4 39.3 17.8Z" fill="#917524"/>
<path d="M38.6 44.4C33.2 41.9 26.8 41.9 21.4 44.4C20.1 45 21.7 48.6 23.1 47.9C26.7 46.2 32 45.6 37 47.9C38.3 48.5 40 45.1 38.6 44.4Z" fill="#664E27"/>
</svg>
