<svg width="60" height="60" viewBox="0 0 60 60" fill="none" xmlns="http://www.w3.org/2000/svg">
<path d="M0 30C0 46.6 13.4 60 30 60C46.6 60 60 46.6 60 30C60 13.4 46.6 0 30 0C13.4 0 0 13.4 0 30Z" fill="#FFDD67"/>
<path d="M46.5 14.3C46.5 24.2 60 24.2 60 14.3C60 7.1 53.3 0 53.3 0C53.3 0 46.5 7.1 46.5 14.3Z" fill="#65B1EF"/>
<path d="M41.5 39C44.2614 39 46.5 36.7614 46.5 34C46.5 31.2386 44.2614 29 41.5 29C38.7386 29 36.5 31.2386 36.5 34C36.5 36.7614 38.7386 39 41.5 39Z" fill="#664E27"/>
<path d="M18.5 39C21.2614 39 23.5 36.7614 23.5 34C23.5 31.2386 21.2614 29 18.5 29C15.7386 29 13.5 31.2386 13.5 34C13.5 36.7614 15.7386 39 18.5 39Z" fill="#664E27"/>
<path d="M23.6 19.9C20.4 22.6 16.1 23.8 11.9 23C11.3 22.9 10.8 25 11.5 25.2C16.3 26.1 21.3 24.7 25 21.6C25.5 21.1 24 19.5 23.6 19.9Z" fill="#917524"/>
<path d="M48.1 22.9C43.9 23.6 39.6 22.5 36.4 19.8C36 19.4 34.4 21 35 21.5C38.7 24.7 43.7 26 48.5 25.1C49.2 24.9 48.7 22.8 48.1 22.9Z" fill="#917524"/>
<path d="M38 50H22C20.5 50 20.5 46 22 46H38C39.5 46 39.5 50 38 50Z" fill="#664E27"/>
</svg>
