<svg width="64" height="64" viewBox="0 0 64 64" fill="none" xmlns="http://www.w3.org/2000/svg">
<path d="M32 62C48.5685 62 62 48.5685 62 32C62 15.4315 48.5685 2 32 2C15.4315 2 2 15.4315 2 32C2 48.5685 15.4315 62 32 62Z" fill="#FFDD67"/>
<path d="M20.5 32.6C23.2614 32.6 25.5 30.3614 25.5 27.6C25.5 24.8386 23.2614 22.6 20.5 22.6C17.7386 22.6 15.5 24.8386 15.5 27.6C15.5 30.3614 17.7386 32.6 20.5 32.6Z" fill="#664E27"/>
<path d="M43.5 32.6C46.2614 32.6 48.5 30.3614 48.5 27.6C48.5 24.8386 46.2614 22.6 43.5 22.6C40.7386 22.6 38.5 24.8386 38.5 27.6C38.5 30.3614 40.7386 32.6 43.5 32.6Z" fill="#664E27"/>
<path d="M38.9 48H25.1C23.6 48 23.6 44 25.1 44H38.8C40.4 44 40.4 48 38.9 48Z" fill="#664E27"/>
</svg>
