<svg width="64" height="68" viewBox="0 0 64 68" fill="none" xmlns="http://www.w3.org/2000/svg">
<path d="M32 65.875C48.5685 65.875 62 51.6041 62 34C62 16.3959 48.5685 2.125 32 2.125C15.4315 2.125 2 16.3959 2 34C2 51.6041 15.4315 65.875 32 65.875Z" fill="#FFDD67"/>
<path d="M20.5 33.575C23.2614 33.575 25.5 31.1965 25.5 28.2625C25.5 25.3285 23.2614 22.95 20.5 22.95C17.7386 22.95 15.5 25.3285 15.5 28.2625C15.5 31.1965 17.7386 33.575 20.5 33.575Z" fill="#664E27"/>
<path d="M43.5 33.575C46.2614 33.575 48.5 31.1965 48.5 28.2625C48.5 25.3285 46.2614 22.95 43.5 22.95C40.7386 22.95 38.5 25.3285 38.5 28.2625C38.5 31.1965 40.7386 33.575 43.5 33.575Z" fill="#664E27"/>
<path d="M44.6 42.8187C36.5 48.875 27.5 48.7687 19.4 42.8187C18.4 42.075 17.6 43.35 18.2 44.5187C20.7 48.7688 25.6 52.7 32 52.7C38.4 52.7 43.3 48.875 45.8 44.5187C46.4 43.35 45.6 42.075 44.6 42.8187Z" fill="#664E27"/>
</svg>
