<svg width="60" height="60" viewBox="0 0 60 60" fill="none" xmlns="http://www.w3.org/2000/svg">
<path d="M30 60C46.5685 60 60 46.5685 60 30C60 13.4315 46.5685 0 30 0C13.4315 0 0 13.4315 0 30C0 46.5685 13.4315 60 30 60Z" fill="#FFDD67"/>
<path d="M47.7 32.4C47.3 31.9 46.6 32 45.8 32H14.2C13.4 32 12.7 31.9 12.3 32.4C8.39999 37.4 13 52 30 52C47 52 51.6 37.4 47.7 32.4Z" fill="#664E27"/>
<path d="M31.8 39.7C31.2 39.7 30.3 40.2 30.7 41.7C30.9 42.4 31.9 43.3 31.9 44.5C31.9 46.9 28.1 46.9 28.1 44.5C28.1 43.3 29.1 42.5 29.3 41.7C29.6 40.3 28.7 39.7 28.2 39.7C26.6 39.7 24.1 41.4 24.1 44.3C24.1 47.5 26.8 50.1 30.1 50.1C33.4 50.1 36.1 47.5 36.1 44.3C36 41.5 33.4 39.8 31.8 39.7Z" fill="#4C3526"/>
<path d="M22.3 48.7C24.5 49.7 27.1 50.2 30 50.2C32.9 50.2 35.5 49.6 37.7 48.7C35.6 47.6 33 47 30 47C27 47 24.4 47.6 22.3 48.7Z" fill="#FF717F"/>
<path d="M45 34H15.1C13 34 13 38 15 38H45C47 38 47 34 45 34Z" fill="white"/>
<path d="M18.5 26C21.2614 26 23.5 23.7614 23.5 21C23.5 18.2386 21.2614 16 18.5 16C15.7386 16 13.5 18.2386 13.5 21C13.5 23.7614 15.7386 26 18.5 26Z" fill="#664E27"/>
<path d="M41.5 26C44.2614 26 46.5 23.7614 46.5 21C46.5 18.2386 44.2614 16 41.5 16C38.7386 16 36.5 18.2386 36.5 21C36.5 23.7614 38.7386 26 41.5 26Z" fill="#664E27"/>
</svg>
