<svg width="20" height="20" viewBox="0 0 20 20" fill="none" xmlns="http://www.w3.org/2000/svg">
<path d="M10 19.375C15.1777 19.375 19.375 15.1777 19.375 10C19.375 4.82233 15.1777 0.625 10 0.625C4.82233 0.625 0.625 4.82233 0.625 10C0.625 15.1777 4.82233 19.375 10 19.375Z" fill="#4FD1D9"/>
<path d="M6.90625 5.59375L5.84375 6L5.625 5.21875L7.0625 4.6875H8.125V9.0625H6.90625V5.59375Z" fill="white"/>
<path d="M11.0938 9.0625V8.46875L11.6562 7.96875C12.625 7.125 13.0938 6.65625 13.0938 6.15625C13.0938 5.8125 12.875 5.53125 12.375 5.53125C12 5.53125 11.6562 5.71875 11.4375 5.875L11.1563 5.15625C11.5 4.90625 12 4.71875 12.5937 4.71875C13.5937 4.71875 14.125 5.28125 14.125 6.0625C14.125 6.78125 13.5938 7.375 12.9375 7.90625L12.5312 8.25H14.1875V9.0625H11.0938Z" fill="white"/>
<path d="M6.15625 14.2812C6.34375 14.375 6.75 14.5312 7.1875 14.5312C7.71875 14.5312 8 14.2812 8 13.9688C8 13.5625 7.5625 13.375 7.09375 13.375H6.65625V12.6562H7.0625C7.40625 12.6562 7.84375 12.5313 7.84375 12.1563C7.84375 11.9063 7.625 11.7187 7.1875 11.7187C6.8125 11.7187 6.4375 11.875 6.25 11.9687L6.0625 11.25C6.34375 11.0937 6.84375 10.9375 7.4375 10.9375C8.375 10.9375 8.90625 11.4063 8.90625 12C8.90625 12.4375 8.625 12.8125 8.09375 12.9687C8.625 13.0625 9.0625 13.4375 9.0625 14C9.0625 14.75 8.375 15.2812 7.25 15.2812C6.6875 15.2812 6.1875 15.125 5.9375 14.9688L6.15625 14.2812Z" fill="white"/>
<path d="M12.75 15.3125V14.2813H10.625V13.625L12.4375 10.9688H13.8125V13.5313H14.375V14.3125H13.8125V15.3125H12.75ZM12.75 13.5V12.5313C12.75 12.2813 12.75 12 12.7813 11.7188H12.75C12.5938 12 12.4688 12.25 12.3125 12.5313L11.6875 13.5H12.75Z" fill="white"/>
</svg>
