<svg width="21" height="20" viewBox="0 0 21 20" fill="none" xmlns="http://www.w3.org/2000/svg">
<g clip-path="url(#clip0_102_31)">
<path d="M9.82616 1.53124C10.1699 2.31249 9.66991 4.93749 9.66991 4.93749C9.66991 4.93749 7.32616 3.56249 6.98241 2.78124C6.63866 1.99999 6.98241 1.09374 7.76366 0.749988C8.54491 0.406238 9.48241 0.749988 9.82616 1.53124Z" fill="#64892F"/>
<path d="M10.4199 5.09375H9.60742C9.60742 3.75 10.3574 1.46875 13.3574 1.46875V2.28125C10.6387 2.28125 10.4199 4.84375 10.4199 5.09375Z" fill="#947151"/>
<path d="M10.0137 4.93752C7.73242 2.62502 0.951172 2.53127 0.951172 9.15627C0.951172 13.3438 5.88867 19.375 8.04492 19.375C9.01367 19.375 9.35742 18.75 9.95117 18.75C10.5137 18.75 10.7012 19.3438 11.9512 19.3438C14.1074 19.375 19.0762 13.375 19.0762 9.15627C19.0762 2.53127 12.2949 2.62502 10.0137 4.93752Z" fill="#8CC63E"/>
</g>
<defs>
<clipPath id="clip0_102_31">
<rect width="20" height="20" fill="white" transform="translate(0.0136719)"/>
</clipPath>
</defs>
</svg>
